<mxfile host="app.diagrams.net" agent="Mozilla/5.0 (Windows NT 10.0; Win64; x64) AppleWebKit/537.36 (KHTML, like Gecko) Chrome/139.0.0.0 Safari/537.36" version="28.1.1">
  <diagram name="Page-1" id="K2yjYGcsPJyAKK3T5Iux">
    <mxGraphModel dx="1281" dy="614" grid="1" gridSize="10" guides="1" tooltips="1" connect="1" arrows="1" fold="1" page="1" pageScale="1" pageWidth="850" pageHeight="1100" math="0" shadow="0">
      <root>
        <mxCell id="0" />
        <mxCell id="1" parent="0" />
        <mxCell id="9sltQGbKnjodDYiscmKj-7" value="" style="edgeStyle=none;curved=1;rounded=0;orthogonalLoop=1;jettySize=auto;html=1;fontSize=12;startSize=8;endSize=8;" edge="1" parent="1" source="9sltQGbKnjodDYiscmKj-1" target="9sltQGbKnjodDYiscmKj-6">
          <mxGeometry relative="1" as="geometry" />
        </mxCell>
        <mxCell id="9sltQGbKnjodDYiscmKj-1" value="" style="rounded=1;whiteSpace=wrap;html=1;" vertex="1" parent="1">
          <mxGeometry x="180" y="40" width="180" height="60" as="geometry" />
        </mxCell>
        <mxCell id="9sltQGbKnjodDYiscmKj-2" value="START" style="text;strokeColor=none;fillColor=none;html=1;align=center;verticalAlign=middle;whiteSpace=wrap;rounded=0;fontSize=16;" vertex="1" parent="1">
          <mxGeometry x="200" y="55" width="140" height="30" as="geometry" />
        </mxCell>
        <mxCell id="9sltQGbKnjodDYiscmKj-6" value="" style="whiteSpace=wrap;html=1;rounded=1;" vertex="1" parent="1">
          <mxGeometry x="210" y="220" width="120" height="60" as="geometry" />
        </mxCell>
        <mxCell id="9sltQGbKnjodDYiscmKj-9" value="idle" style="text;strokeColor=none;fillColor=none;html=1;align=center;verticalAlign=middle;whiteSpace=wrap;rounded=0;fontSize=16;" vertex="1" parent="1">
          <mxGeometry x="240" y="235" width="60" height="30" as="geometry" />
        </mxCell>
        <mxCell id="9sltQGbKnjodDYiscmKj-15" value="" style="html=1;shadow=0;dashed=0;align=center;verticalAlign=middle;shape=mxgraph.arrows2.arrow;dy=0.64;dx=28.6;direction=south;notch=0;" vertex="1" parent="1">
          <mxGeometry x="615" y="320" width="30" height="80" as="geometry" />
        </mxCell>
        <mxCell id="9sltQGbKnjodDYiscmKj-22" value="" style="html=1;shadow=0;dashed=0;align=center;verticalAlign=middle;shape=mxgraph.arrows2.arrow;dy=0.64;dx=28.6;direction=south;notch=0;" vertex="1" parent="1">
          <mxGeometry x="440" y="320" width="30" height="80" as="geometry" />
        </mxCell>
        <mxCell id="9sltQGbKnjodDYiscmKj-23" value="" style="html=1;shadow=0;dashed=0;align=center;verticalAlign=middle;shape=mxgraph.arrows2.arrow;dy=0.64;dx=28.6;direction=south;notch=0;" vertex="1" parent="1">
          <mxGeometry x="270" y="320" width="30" height="80" as="geometry" />
        </mxCell>
        <mxCell id="9sltQGbKnjodDYiscmKj-24" value="" style="html=1;shadow=0;dashed=0;align=center;verticalAlign=middle;shape=mxgraph.arrows2.arrow;dy=0.64;dx=28.6;direction=south;notch=0;" vertex="1" parent="1">
          <mxGeometry x="90" y="320" width="30" height="80" as="geometry" />
        </mxCell>
        <mxCell id="9sltQGbKnjodDYiscmKj-25" value="" style="rounded=0;whiteSpace=wrap;html=1;" vertex="1" parent="1">
          <mxGeometry x="60" y="410" width="120" height="60" as="geometry" />
        </mxCell>
        <mxCell id="9sltQGbKnjodDYiscmKj-26" value="" style="rounded=0;whiteSpace=wrap;html=1;" vertex="1" parent="1">
          <mxGeometry x="220" y="410" width="120" height="60" as="geometry" />
        </mxCell>
        <mxCell id="9sltQGbKnjodDYiscmKj-27" value="" style="rounded=0;whiteSpace=wrap;html=1;" vertex="1" parent="1">
          <mxGeometry x="400" y="410" width="120" height="60" as="geometry" />
        </mxCell>
        <mxCell id="9sltQGbKnjodDYiscmKj-28" value="" style="rounded=0;whiteSpace=wrap;html=1;" vertex="1" parent="1">
          <mxGeometry x="570" y="410" width="120" height="60" as="geometry" />
        </mxCell>
        <mxCell id="9sltQGbKnjodDYiscmKj-29" value="mine" style="text;strokeColor=none;fillColor=none;html=1;align=center;verticalAlign=middle;whiteSpace=wrap;rounded=0;fontSize=16;" vertex="1" parent="1">
          <mxGeometry x="90" y="425" width="60" height="30" as="geometry" />
        </mxCell>
        <mxCell id="9sltQGbKnjodDYiscmKj-30" value="by worker" style="text;strokeColor=none;fillColor=none;html=1;align=center;verticalAlign=middle;whiteSpace=wrap;rounded=0;fontSize=16;" vertex="1" parent="1">
          <mxGeometry x="250" y="425" width="60" height="30" as="geometry" />
        </mxCell>
        <mxCell id="9sltQGbKnjodDYiscmKj-31" value="by robot" style="text;strokeColor=none;fillColor=none;html=1;align=center;verticalAlign=middle;whiteSpace=wrap;rounded=0;fontSize=16;" vertex="1" parent="1">
          <mxGeometry x="430" y="425" width="60" height="30" as="geometry" />
        </mxCell>
        <mxCell id="9sltQGbKnjodDYiscmKj-32" value="super robot" style="text;strokeColor=none;fillColor=none;html=1;align=center;verticalAlign=middle;whiteSpace=wrap;rounded=0;fontSize=16;" vertex="1" parent="1">
          <mxGeometry x="600" y="425" width="60" height="30" as="geometry" />
        </mxCell>
        <mxCell id="9sltQGbKnjodDYiscmKj-33" value="" style="endArrow=classic;html=1;rounded=0;fontSize=12;startSize=8;endSize=8;curved=1;" edge="1" parent="1">
          <mxGeometry width="50" height="50" relative="1" as="geometry">
            <mxPoint x="110" y="480" as="sourcePoint" />
            <mxPoint x="200" y="590" as="targetPoint" />
            <Array as="points">
              <mxPoint x="110" y="500" />
            </Array>
          </mxGeometry>
        </mxCell>
        <mxCell id="9sltQGbKnjodDYiscmKj-34" value="" style="endArrow=classic;html=1;rounded=0;fontSize=12;startSize=8;endSize=8;curved=1;" edge="1" parent="1">
          <mxGeometry width="50" height="50" relative="1" as="geometry">
            <mxPoint x="279.5" y="480" as="sourcePoint" />
            <mxPoint x="279.5" y="560" as="targetPoint" />
            <Array as="points">
              <mxPoint x="279.5" y="500" />
            </Array>
          </mxGeometry>
        </mxCell>
        <mxCell id="9sltQGbKnjodDYiscmKj-35" value="" style="endArrow=classic;html=1;rounded=0;fontSize=12;startSize=8;endSize=8;curved=1;" edge="1" parent="1">
          <mxGeometry width="50" height="50" relative="1" as="geometry">
            <mxPoint x="459.5" y="480" as="sourcePoint" />
            <mxPoint x="459.5" y="560" as="targetPoint" />
            <Array as="points">
              <mxPoint x="459.5" y="500" />
            </Array>
          </mxGeometry>
        </mxCell>
        <mxCell id="9sltQGbKnjodDYiscmKj-36" value="" style="endArrow=classic;html=1;rounded=0;fontSize=12;startSize=8;endSize=8;curved=1;" edge="1" parent="1">
          <mxGeometry width="50" height="50" relative="1" as="geometry">
            <mxPoint x="629.5" y="490" as="sourcePoint" />
            <mxPoint x="629.5" y="570" as="targetPoint" />
            <Array as="points">
              <mxPoint x="629.5" y="510" />
            </Array>
          </mxGeometry>
        </mxCell>
        <mxCell id="9sltQGbKnjodDYiscmKj-58" value="" style="rounded=1;whiteSpace=wrap;html=1;" vertex="1" parent="1">
          <mxGeometry x="220" y="570" width="120" height="60" as="geometry" />
        </mxCell>
        <mxCell id="9sltQGbKnjodDYiscmKj-59" value="idle" style="text;strokeColor=none;fillColor=none;html=1;align=center;verticalAlign=middle;whiteSpace=wrap;rounded=0;fontSize=16;" vertex="1" parent="1">
          <mxGeometry x="250" y="585" width="60" height="30" as="geometry" />
        </mxCell>
        <mxCell id="9sltQGbKnjodDYiscmKj-60" value="" style="rounded=1;whiteSpace=wrap;html=1;" vertex="1" parent="1">
          <mxGeometry x="395" y="570" width="120" height="60" as="geometry" />
        </mxCell>
        <mxCell id="9sltQGbKnjodDYiscmKj-61" value="idle" style="text;strokeColor=none;fillColor=none;html=1;align=center;verticalAlign=middle;whiteSpace=wrap;rounded=0;fontSize=16;" vertex="1" parent="1">
          <mxGeometry x="425" y="585" width="60" height="30" as="geometry" />
        </mxCell>
        <mxCell id="9sltQGbKnjodDYiscmKj-62" value="" style="rounded=1;whiteSpace=wrap;html=1;" vertex="1" parent="1">
          <mxGeometry x="580" y="580" width="120" height="60" as="geometry" />
        </mxCell>
        <mxCell id="9sltQGbKnjodDYiscmKj-63" value="idle" style="text;strokeColor=none;fillColor=none;html=1;align=center;verticalAlign=middle;whiteSpace=wrap;rounded=0;fontSize=16;" vertex="1" parent="1">
          <mxGeometry x="610" y="595" width="60" height="30" as="geometry" />
        </mxCell>
        <mxCell id="9sltQGbKnjodDYiscmKj-64" value="" style="endArrow=classic;html=1;rounded=0;fontSize=12;startSize=8;endSize=8;curved=1;" edge="1" parent="1">
          <mxGeometry width="50" height="50" relative="1" as="geometry">
            <mxPoint x="130" y="510" as="sourcePoint" />
            <mxPoint x="130" y="650" as="targetPoint" />
          </mxGeometry>
        </mxCell>
        <mxCell id="9sltQGbKnjodDYiscmKj-65" value="" style="rounded=1;whiteSpace=wrap;html=1;" vertex="1" parent="1">
          <mxGeometry x="70" y="680" width="120" height="60" as="geometry" />
        </mxCell>
        <mxCell id="9sltQGbKnjodDYiscmKj-78" style="edgeStyle=none;curved=1;rounded=0;orthogonalLoop=1;jettySize=auto;html=1;exitX=0.5;exitY=1;exitDx=0;exitDy=0;fontSize=12;startSize=8;endSize=8;" edge="1" parent="1" source="9sltQGbKnjodDYiscmKj-66">
          <mxGeometry relative="1" as="geometry">
            <mxPoint x="365" y="790" as="targetPoint" />
          </mxGeometry>
        </mxCell>
        <mxCell id="9sltQGbKnjodDYiscmKj-66" value="" style="rounded=1;whiteSpace=wrap;html=1;" vertex="1" parent="1">
          <mxGeometry x="305" y="670" width="120" height="60" as="geometry" />
        </mxCell>
        <mxCell id="9sltQGbKnjodDYiscmKj-67" value="" style="rounded=1;whiteSpace=wrap;html=1;" vertex="1" parent="1">
          <mxGeometry x="570" y="670" width="120" height="60" as="geometry" />
        </mxCell>
        <mxCell id="9sltQGbKnjodDYiscmKj-68" value="" style="rounded=1;whiteSpace=wrap;html=1;" vertex="1" parent="1">
          <mxGeometry x="60" y="800" width="120" height="60" as="geometry" />
        </mxCell>
        <mxCell id="9sltQGbKnjodDYiscmKj-69" value="" style="rounded=1;whiteSpace=wrap;html=1;" vertex="1" parent="1">
          <mxGeometry x="300" y="800" width="120" height="60" as="geometry" />
        </mxCell>
        <mxCell id="9sltQGbKnjodDYiscmKj-81" style="edgeStyle=none;curved=1;rounded=0;orthogonalLoop=1;jettySize=auto;html=1;exitX=1;exitY=0.5;exitDx=0;exitDy=0;fontSize=12;startSize=8;endSize=8;" edge="1" parent="1" source="9sltQGbKnjodDYiscmKj-70">
          <mxGeometry relative="1" as="geometry">
            <mxPoint x="750" y="820" as="targetPoint" />
          </mxGeometry>
        </mxCell>
        <mxCell id="9sltQGbKnjodDYiscmKj-70" value="" style="rounded=1;whiteSpace=wrap;html=1;" vertex="1" parent="1">
          <mxGeometry x="560" y="790" width="120" height="60" as="geometry" />
        </mxCell>
        <mxCell id="9sltQGbKnjodDYiscmKj-71" value="idel" style="text;strokeColor=none;fillColor=none;html=1;align=center;verticalAlign=middle;whiteSpace=wrap;rounded=0;fontSize=16;" vertex="1" parent="1">
          <mxGeometry x="335" y="815" width="60" height="30" as="geometry" />
        </mxCell>
        <mxCell id="9sltQGbKnjodDYiscmKj-72" value="help" style="text;strokeColor=none;fillColor=none;html=1;align=center;verticalAlign=middle;whiteSpace=wrap;rounded=0;fontSize=16;" vertex="1" parent="1">
          <mxGeometry x="335" y="685" width="60" height="30" as="geometry" />
        </mxCell>
        <mxCell id="9sltQGbKnjodDYiscmKj-73" value="raid" style="text;strokeColor=none;fillColor=none;html=1;align=center;verticalAlign=middle;whiteSpace=wrap;rounded=0;fontSize=16;" vertex="1" parent="1">
          <mxGeometry x="600" y="685" width="60" height="30" as="geometry" />
        </mxCell>
        <mxCell id="9sltQGbKnjodDYiscmKj-74" value="blattle" style="text;strokeColor=none;fillColor=none;html=1;align=center;verticalAlign=middle;whiteSpace=wrap;rounded=0;fontSize=16;" vertex="1" parent="1">
          <mxGeometry x="590" y="805" width="60" height="30" as="geometry" />
        </mxCell>
        <mxCell id="9sltQGbKnjodDYiscmKj-75" value="idle" style="text;strokeColor=none;fillColor=none;html=1;align=center;verticalAlign=middle;whiteSpace=wrap;rounded=0;fontSize=16;" vertex="1" parent="1">
          <mxGeometry x="90" y="815" width="60" height="30" as="geometry" />
        </mxCell>
        <mxCell id="9sltQGbKnjodDYiscmKj-76" value="fix" style="text;strokeColor=none;fillColor=none;html=1;align=center;verticalAlign=middle;whiteSpace=wrap;rounded=0;fontSize=16;" vertex="1" parent="1">
          <mxGeometry x="100" y="695" width="60" height="30" as="geometry" />
        </mxCell>
        <mxCell id="9sltQGbKnjodDYiscmKj-79" style="edgeStyle=none;curved=1;rounded=0;orthogonalLoop=1;jettySize=auto;html=1;entryX=0.613;entryY=0.023;entryDx=0;entryDy=0;entryPerimeter=0;fontSize=12;startSize=8;endSize=8;" edge="1" parent="1" source="9sltQGbKnjodDYiscmKj-73" target="9sltQGbKnjodDYiscmKj-70">
          <mxGeometry relative="1" as="geometry" />
        </mxCell>
        <mxCell id="9sltQGbKnjodDYiscmKj-80" style="edgeStyle=none;curved=1;rounded=0;orthogonalLoop=1;jettySize=auto;html=1;exitX=0.5;exitY=1;exitDx=0;exitDy=0;entryX=0.567;entryY=-0.063;entryDx=0;entryDy=0;entryPerimeter=0;fontSize=12;startSize=8;endSize=8;" edge="1" parent="1" source="9sltQGbKnjodDYiscmKj-65" target="9sltQGbKnjodDYiscmKj-68">
          <mxGeometry relative="1" as="geometry" />
        </mxCell>
        <mxCell id="9sltQGbKnjodDYiscmKj-83" value="WIN" style="text;strokeColor=none;fillColor=none;html=1;align=center;verticalAlign=middle;whiteSpace=wrap;rounded=0;fontSize=16;" vertex="1" parent="1">
          <mxGeometry x="750" y="805" width="60" height="30" as="geometry" />
        </mxCell>
        <mxCell id="9sltQGbKnjodDYiscmKj-84" value="" style="endArrow=classic;html=1;rounded=0;fontSize=12;startSize=8;endSize=8;curved=1;" edge="1" parent="1">
          <mxGeometry width="50" height="50" relative="1" as="geometry">
            <mxPoint x="680" y="850" as="sourcePoint" />
            <mxPoint x="750" y="850" as="targetPoint" />
            <Array as="points">
              <mxPoint x="680" y="850" />
            </Array>
          </mxGeometry>
        </mxCell>
        <mxCell id="9sltQGbKnjodDYiscmKj-85" value="" style="endArrow=classic;html=1;rounded=0;fontSize=12;startSize=8;endSize=8;curved=1;" edge="1" parent="1">
          <mxGeometry width="50" height="50" relative="1" as="geometry">
            <mxPoint x="690" y="890" as="sourcePoint" />
            <mxPoint x="760" y="890" as="targetPoint" />
            <Array as="points">
              <mxPoint x="690" y="890" />
            </Array>
          </mxGeometry>
        </mxCell>
        <mxCell id="9sltQGbKnjodDYiscmKj-86" value="" style="endArrow=none;html=1;rounded=0;fontSize=12;startSize=8;endSize=8;curved=1;entryX=1;entryY=1;entryDx=0;entryDy=0;" edge="1" parent="1" target="9sltQGbKnjodDYiscmKj-70">
          <mxGeometry width="50" height="50" relative="1" as="geometry">
            <mxPoint x="690" y="890" as="sourcePoint" />
            <mxPoint x="710" y="820" as="targetPoint" />
          </mxGeometry>
        </mxCell>
        <mxCell id="9sltQGbKnjodDYiscmKj-87" value="lLOSE" style="text;strokeColor=none;fillColor=none;html=1;align=center;verticalAlign=middle;whiteSpace=wrap;rounded=0;fontSize=16;" vertex="1" parent="1">
          <mxGeometry x="750" y="835" width="60" height="30" as="geometry" />
        </mxCell>
        <mxCell id="9sltQGbKnjodDYiscmKj-88" value="ELSE" style="text;strokeColor=none;fillColor=none;html=1;align=center;verticalAlign=middle;whiteSpace=wrap;rounded=0;fontSize=16;" vertex="1" parent="1">
          <mxGeometry x="760" y="880" width="60" height="30" as="geometry" />
        </mxCell>
        <mxCell id="9sltQGbKnjodDYiscmKj-89" value="" style="endArrow=classic;startArrow=classic;html=1;rounded=0;fontSize=12;startSize=8;endSize=8;curved=1;" edge="1" parent="1">
          <mxGeometry width="50" height="50" relative="1" as="geometry">
            <mxPoint x="340" y="250" as="sourcePoint" />
            <mxPoint x="830" y="940" as="targetPoint" />
            <Array as="points">
              <mxPoint x="680" y="20" />
              <mxPoint x="690" y="90" />
              <mxPoint x="770" y="390" />
            </Array>
          </mxGeometry>
        </mxCell>
        <mxCell id="9sltQGbKnjodDYiscmKj-90" value="QUIT" style="text;strokeColor=none;fillColor=none;html=1;align=center;verticalAlign=middle;whiteSpace=wrap;rounded=0;fontSize=16;" vertex="1" parent="1">
          <mxGeometry x="790" y="950" width="60" height="30" as="geometry" />
        </mxCell>
      </root>
    </mxGraphModel>
  </diagram>
</mxfile>
